<?xml version="1.0" standalone="no"?>
<!DOCTYPE svg PUBLIC "-//W3C//DTD SVG 20010904//EN"
 "http://www.w3.org/TR/2001/REC-SVG-20010904/DTD/svg10.dtd">
<svg version="1.0" xmlns="http://www.w3.org/2000/svg"
 width="512.000000pt" height="512.000000pt" viewBox="0 0 512.000000 512.000000"
 preserveAspectRatio="xMidYMid meet">

<g transform="translate(0.000000,512.000000) scale(0.100000,-0.100000)"
fill="#000000" stroke="none">
<path d="M863 5106 c-216 -53 -383 -262 -383 -480 l0 -44 -112 -3 c-98 -4
-120 -8 -168 -31 -71 -35 -133 -97 -168 -167 -23 -48 -27 -69 -27 -141 0 -72
4 -93 27 -141 35 -70 97 -132 168 -167 48 -23 70 -27 168 -31 l112 -3 0 -498
0 -498 -112 -3 c-98 -4 -120 -8 -168 -31 -71 -35 -133 -97 -168 -167 -23 -48
-27 -69 -27 -141 0 -72 4 -93 27 -141 35 -70 97 -132 168 -167 48 -23 70 -27
168 -31 l112 -3 0 -498 0 -498 -112 -3 c-98 -4 -120 -8 -168 -31 -71 -35 -133
-97 -168 -167 -23 -48 -27 -69 -27 -141 0 -72 4 -93 27 -141 35 -70 97 -132
168 -167 48 -23 70 -27 168 -31 l112 -3 0 -44 c0 -224 175 -436 398 -483 75
-16 3769 -16 3844 0 187 39 348 200 387 387 16 75 16 4249 0 4324 -39 187
-200 348 -387 387 -81 17 -3788 14 -3859 -3z m3349 -219 c64 -32 111 -80 142
-146 21 -45 21 -58 26 -906 3 -473 9 -868 14 -878 10 -21 57 -47 86 -47 34 0
76 27 89 57 9 21 11 251 9 893 l-3 865 -22 59 c-13 33 -34 77 -49 99 l-26 39
109 -4 c162 -6 244 -51 300 -166 l28 -57 0 -2135 0 -2135 -21 -46 c-31 -66
-78 -115 -142 -146 -49 -24 -72 -28 -165 -32 l-109 -3 26 39 c15 22 36 66 49
99 l22 59 3 865 c2 642 0 872 -9 893 -13 30 -55 57 -89 57 -29 0 -76 -26 -86
-47 -5 -10 -11 -405 -14 -878 -5 -848 -5 -861 -26 -906 -31 -66 -78 -114 -142
-146 l-57 -28 -1625 0 -1625 0 -57 28 c-97 47 -155 135 -165 247 l-6 58 114 3
c100 4 121 7 171 32 72 35 130 93 165 165 24 49 28 69 28 142 0 73 -4 93 -28
142 -35 72 -93 130 -165 165 -50 24 -71 28 -169 32 l-113 3 0 498 0 498 113 3
c98 4 119 8 169 32 72 35 130 93 165 165 24 49 28 69 28 142 0 73 -4 93 -28
142 -35 72 -93 130 -165 165 -50 24 -71 28 -169 32 l-113 3 0 498 0 498 113 3
c98 4 119 8 169 32 72 35 130 93 165 165 24 49 28 69 28 142 0 73 -4 93 -28
142 -35 72 -93 130 -165 165 -50 24 -71 28 -169 32 l-113 3 0 37 c0 88 53 193
121 242 19 13 56 31 84 41 47 16 152 17 1660 15 l1610 -2 57 -28z m-3321 -530
c93 -62 87 -189 -12 -239 -30 -16 -66 -18 -299 -18 -296 0 -313 3 -357 69 -43
63 -21 148 49 191 31 19 51 20 309 20 270 0 277 0 310 -23z m0 -1680 c93 -62
87 -189 -12 -239 -30 -16 -66 -18 -299 -18 -296 0 -313 3 -357 69 -43 63 -21
148 49 191 31 19 51 20 309 20 270 0 277 0 310 -23z m0 -1680 c93 -62 87 -189
-12 -239 -30 -16 -66 -18 -299 -18 -296 0 -313 3 -357 69 -43 63 -21 148 49
191 31 19 51 20 309 20 270 0 277 0 310 -23z"/>
<path d="M2399 3662 c-173 -46 -321 -202 -358 -380 -14 -69 -14 -296 0 -364
16 -72 49 -143 93 -201 21 -27 36 -50 34 -52 -2 -1 -34 -15 -73 -30 -350 -139
-615 -443 -709 -813 -32 -129 -44 -278 -26 -322 26 -63 -39 -60 1170 -60 1209
0 1144 -3 1170 60 29 70 -11 314 -79 484 -116 291 -365 537 -656 651 -38 15
-71 29 -73 30 -2 2 13 25 34 52 44 58 77 129 93 201 14 68 14 295 0 364 -39
188 -204 353 -388 388 -76 14 -156 12 -232 -8z m258 -210 c65 -34 110 -78 140
-140 27 -55 28 -63 28 -212 0 -149 -1 -157 -28 -212 -30 -61 -74 -105 -140
-140 -60 -33 -194 -33 -254 0 -66 35 -110 79 -140 140 -26 52 -28 69 -31 189
-3 98 0 145 12 185 28 96 96 168 193 204 54 20 167 13 220 -14z m-227 -1137
l0 -195 28 -31 c24 -26 36 -32 72 -32 36 0 48 6 72 32 l28 31 0 195 c0 224
-11 206 110 180 330 -69 610 -322 719 -649 17 -51 33 -118 37 -149 l7 -57
-973 0 -973 0 7 57 c23 198 165 449 334 589 147 122 364 218 505 223 l27 1 0
-195z"/>
<path d="M4431 2646 c-87 -48 -50 -186 49 -186 51 0 100 49 100 99 0 75 -83
124 -149 87z"/>
<path d="M1850 1073 c-78 -29 -90 -142 -19 -178 42 -22 1356 -22 1398 0 57 29
64 110 15 156 l-26 24 -676 2 c-372 1 -684 -1 -692 -4z"/>
</g>
</svg>
