<?xml version="1.0" standalone="no"?>
<!DOCTYPE svg PUBLIC "-//W3C//DTD SVG 20010904//EN"
 "http://www.w3.org/TR/2001/REC-SVG-20010904/DTD/svg10.dtd">
<svg version="1.0" xmlns="http://www.w3.org/2000/svg"
 width="512.000000pt" height="512.000000pt" viewBox="0 0 512.000000 512.000000"
 preserveAspectRatio="xMidYMid meet">

<g transform="translate(0.000000,512.000000) scale(0.100000,-0.100000)"
fill="#000000" stroke="none">
<path d="M3895 5105 c-267 -50 -486 -217 -606 -460 -70 -142 -84 -203 -84
-365 0 -74 3 -153 7 -176 l8 -40 -775 -442 c-426 -243 -781 -442 -788 -442 -8
0 -22 10 -33 22 -31 35 -158 114 -236 146 -115 48 -220 65 -362 59 -147 -6
-210 -22 -341 -86 -165 -82 -288 -201 -374 -362 -255 -481 -2 -1069 526 -1221
103 -30 342 -33 443 -5 94 26 236 98 308 156 34 28 67 51 72 51 6 0 358 -198
783 -441 679 -387 772 -443 769 -462 -1 -12 -5 -79 -8 -149 -6 -110 -4 -140
15 -222 70 -303 294 -541 596 -632 80 -24 106 -27 235 -27 129 0 155 3 235 27
232 70 419 226 525 437 58 115 81 204 87 345 12 261 -74 473 -265 656 -165
157 -353 231 -587 231 -220 -1 -420 -80 -570 -224 l-50 -48 -145 83 c-80 45
-428 244 -773 440 -491 280 -627 362 -623 375 39 129 39 333 0 462 -4 13 137
98 658 395 365 207 713 405 773 440 l110 63 50 -48 c95 -92 228 -164 370 -202
61 -16 109 -21 205 -21 155 0 242 21 387 92 226 111 397 337 448 589 23 111
16 294 -14 399 -122 422 -549 688 -976 607z"/>
</g>
</svg>
